<mxfile host="app.diagrams.net" modified="2020-08-19T08:05:59.943Z" agent="5.0 (Windows)" etag="N7tKhPiDXJFWDkzxmROL" version="13.6.3" type="github">
  <diagram id="iUOrrVVIFrG0uIzfBPIT" name="第 1 页">
    <mxGraphModel dx="1422" dy="776" grid="1" gridSize="10" guides="1" tooltips="1" connect="1" arrows="1" fold="1" page="1" pageScale="1" pageWidth="827" pageHeight="1169" math="0" shadow="0">
      <root>
        <mxCell id="0" />
        <mxCell id="1" parent="0" />
        <mxCell id="fFzljCqL0f_0rafPXmUT-1" value="Pool" style="swimlane;html=1;childLayout=stackLayout;resizeParent=1;resizeParentMax=0;startSize=45;" vertex="1" parent="1">
          <mxGeometry x="114" y="105" width="600" height="935" as="geometry" />
        </mxCell>
        <mxCell id="fFzljCqL0f_0rafPXmUT-2" value="Lane 1" style="swimlane;html=1;startSize=40;" vertex="1" parent="fFzljCqL0f_0rafPXmUT-1">
          <mxGeometry y="45" width="200" height="890" as="geometry" />
        </mxCell>
        <mxCell id="fFzljCqL0f_0rafPXmUT-3" value="Lane 2" style="swimlane;html=1;startSize=40;" vertex="1" parent="fFzljCqL0f_0rafPXmUT-1">
          <mxGeometry x="200" y="45" width="200" height="890" as="geometry" />
        </mxCell>
        <mxCell id="fFzljCqL0f_0rafPXmUT-4" value="Lane 3" style="swimlane;html=1;startSize=40;" vertex="1" parent="fFzljCqL0f_0rafPXmUT-1">
          <mxGeometry x="400" y="45" width="200" height="890" as="geometry" />
        </mxCell>
      </root>
    </mxGraphModel>
  </diagram>
</mxfile>
